<?xml version="1.0" encoding="UTF-8" standalone="no"?>
<svg
   xmlns:dc="http://purl.org/dc/elements/1.1/"
   xmlns:cc="http://creativecommons.org/ns#"
   xmlns:rdf="http://www.w3.org/1999/02/22-rdf-syntax-ns#"
   xmlns:svg="http://www.w3.org/2000/svg"
   xmlns="http://www.w3.org/2000/svg"
   viewBox="0 0 702.32666 228.38533"
   height="228.38533"
   width="702.32666"
   xml:space="preserve"
   id="svg2"
   version="1.1"><metadata
     id="metadata8"><rdf:RDF><cc:Work
         rdf:about=""><dc:format>image/svg+xml</dc:format><dc:type
           rdf:resource="http://purl.org/dc/dcmitype/StillImage" /></cc:Work></rdf:RDF></metadata><defs
     id="defs6"><clipPath
       id="clipPath18"
       clipPathUnits="userSpaceOnUse"><path
         id="path16"
         d="M 0,171.289 H 526.745 V 0 H 0 Z" /></clipPath></defs><g
     transform="matrix(1.3333333,0,0,-1.3333333,0,228.38533)"
     id="g10"><g
       id="g12"><g
         clip-path="url(#clipPath18)"
         id="g14"><g
           transform="translate(226.8169,71.6838)"
           id="g20"><path
             id="path22"
             style="fill:#231f20;fill-opacity:1;fill-rule:nonzero;stroke:none"
             d="m 0,0 v -21.386 c 4.128,0 8.259,0.09 11.896,0.09 10.619,0 12.781,6.098 12.781,10.605 C 24.677,-6.274 21.826,0 11.307,0 Z m 0,7.244 h 10.324 c 9.241,0 11.304,4.949 11.304,9.102 0,4.329 -1.867,9.1 -11.108,9.1 -2.754,0 -7.375,0 -10.52,0.09 z m 10.715,25.36 c 14.454,0 21.435,-6.009 21.435,-15.993 0,-5.569 -3.737,-10.426 -9.242,-12.372 6.684,-1.767 12.487,-7.863 12.487,-15.463 0,-9.808 -7.081,-17.23 -23.4,-17.23 -7.964,0 -14.355,0.179 -21.729,0.265 l -0.59,0.619 v 59.29 l 0.59,0.619 c 7.178,0.089 13.961,0.265 20.449,0.265" /></g><g
           transform="translate(280.3804,75.3933)"
           id="g24"><path
             id="path26"
             style="fill:#231f20;fill-opacity:1;fill-rule:nonzero;stroke:none"
             d="m 0,0 c 3.833,0.089 8.159,0.178 10.913,0.178 9.636,0 11.995,5.477 11.995,10.603 0,5.39 -2.359,10.691 -11.995,10.691 -2.853,0 -7.57,0 -10.913,0.089 z m 21.138,-5.301 c 3.244,-1.062 5.603,-4.064 6.98,-7.512 l 4.326,-10.337 c 0.984,-2.386 2.162,-4.771 4.423,-6.363 -1.374,-1.853 -4.423,-2.915 -7.077,-2.915 -3.933,0 -5.31,1.945 -6.882,5.744 l -4.918,11.929 c -1.669,4.064 -3.833,7.244 -9.93,7.244 H 0 V -31.81 c -1.572,-0.264 -3.542,-0.354 -5.21,-0.354 -1.575,0 -3.638,0.09 -5.114,0.354 v 59.821 l 0.59,0.618 c 7.374,0.089 14.454,0.265 21.137,0.265 13.667,0 22.32,-6.363 22.32,-18.113 0,-8.131 -5.409,-14.051 -12.585,-16.082" /></g><g
           transform="translate(340.437,65.8503)"
           id="g28"><path
             id="path30"
             style="fill:#231f20;fill-opacity:1;fill-rule:nonzero;stroke:none"
             d="m 0,0 c 1.575,0 4.23,0.089 5.015,0.089 h 9.831 C 15.534,0.089 18.188,0 19.765,0 l -4.526,12.813 c -1.767,5.125 -3.833,11.31 -5.21,15.992 H 9.539 C 8.557,24.83 6.785,19.262 5.703,15.992 Z m -2.654,-7.598 -5.21,-14.757 c -1.279,-0.266 -2.949,-0.354 -4.522,-0.354 -1.87,0 -3.737,0.267 -5.114,0.618 l -0.295,0.443 22.221,59.731 c 1.572,0.265 4.326,0.354 5.998,0.354 1.671,0 4.422,-0.089 5.898,-0.354 l 22.025,-59.731 c -1.477,-0.883 -3.836,-1.237 -6.097,-1.237 -3.244,0 -4.916,1.062 -6.193,4.947 l -3.638,10.34 c -1.672,0 -5.114,-0.089 -5.901,-0.089 H 3.049 c -0.788,0 -4.031,0.089 -5.703,0.089" /></g><g
           transform="translate(388.1128,56.3068)"
           id="g32"><path
             id="path34"
             style="fill:#231f20;fill-opacity:1;fill-rule:nonzero;stroke:none"
             d="m 0,0 c 5.703,-3.355 12.979,-6.009 19.761,-6.009 7.964,0 12.485,3.448 12.585,8.308 0,4.153 -3.244,7.333 -8.948,9.541 l -11.601,4.507 c -8.259,3.182 -13.469,7.776 -13.469,15.287 0,9.632 9.043,17.141 22.22,17.141 8.16,0 15.729,-2.297 20.844,-4.593 -0.1,-2.651 -1.672,-5.566 -3.836,-7.336 -5.112,2.3 -11.797,4.155 -16.812,4.155 -7.275,0 -11.798,-3.623 -11.798,-8.308 0,-3.888 3.344,-6.095 8.16,-7.951 l 11.407,-4.418 c 8.453,-3.18 14.746,-8.571 14.746,-16.436 0,-10.161 -7.865,-17.759 -24.087,-17.759 -8.163,0 -17.011,2.475 -23.598,6.627 C -4.131,-4.506 -2.165,-1.588 0,0" /></g><g
           transform="translate(443.5884,103.9333)"
           id="g36"><path
             id="path38"
             style="fill:#231f20;fill-opacity:1;fill-rule:nonzero;stroke:none"
             d="M 0,0 C 1.477,0.265 3.638,0.354 5.21,0.354 6.785,0.354 8.848,0.265 10.423,0 v -60.35 c -1.575,-0.264 -3.638,-0.354 -5.213,-0.354 -1.572,0 -3.733,0.09 -5.21,0.354 z" /></g><g
           transform="translate(509.8647,51.7141)"
           id="g40"><path
             id="path42"
             style="fill:#231f20;fill-opacity:1;fill-rule:nonzero;stroke:none"
             d="m 0,0 c 0,-0.973 -0.1,-2.564 -0.295,-3.712 -0.59,-3.005 -3.049,-4.507 -6.785,-4.507 h -25.66 c -3.538,0 -6.097,2.032 -6.097,5.833 v 54.43 l 0.689,0.529 h 3.932 c 4.326,0 5.902,-1.856 5.902,-6.009 V -0.354 C -25.27,-0.089 -22.221,0 -19.566,0 Z" /></g><g
           transform="translate(222.4585,128.759)"
           id="g44"><path
             id="path46"
             style="fill:#231f20;fill-opacity:1;fill-rule:nonzero;stroke:none"
             d="m 0,0 c 1.471,0.045 3.074,0.091 3.741,0.091 3.962,0 4.763,3.249 4.763,5.608 0,2.404 -0.801,5.612 -4.763,5.612 -1.112,0 -2.404,0 -3.741,0.045 z M 4.096,-4.542 H 0 v -10.106 c -0.934,-0.179 -2.137,-0.222 -2.982,-0.222 -0.801,0 -2.047,0.043 -2.984,0.222 v 30.187 l 0.313,0.267 c 3.561,0.091 6.545,0.179 9.749,0.179 6.145,0 10.552,-3.341 10.552,-10.286 0,-6.724 -4.407,-10.241 -10.552,-10.241" /></g><g
           transform="translate(245.7017,125.7302)"
           id="g48"><path
             id="path50"
             style="fill:#231f20;fill-opacity:1;fill-rule:nonzero;stroke:none"
             d="M 0,0 C 0.624,0 1.558,0.045 2.004,0.045 H 5.832 C 6.232,0.045 7.078,0 7.703,0 L 6.366,4.544 C 5.611,7.082 4.629,10.51 3.962,13.181 H 3.695 C 3.25,10.911 2.315,7.703 1.737,5.657 Z m -1.471,-4.717 -2.092,-6.948 c -0.757,-0.176 -1.645,-0.221 -2.583,-0.221 -0.933,0 -2.136,0.133 -2.849,0.4 l -0.221,0.312 9.928,29.966 c 0.979,0.134 2.45,0.222 3.475,0.222 0.933,0 2.492,-0.088 3.428,-0.267 l 9.749,-29.967 c -0.845,-0.488 -2.27,-0.758 -3.428,-0.758 -1.914,0 -2.85,0.67 -3.562,3.208 l -1.246,4.053 c -0.667,0 -1.737,-0.045 -2.183,-0.045 H 0.712 c -0.445,0 -1.47,0 -2.183,0.045" /></g><g
           transform="translate(269.2563,136.2829)"
           id="g52"><path
             id="path54"
             style="fill:#231f20;fill-opacity:1;fill-rule:nonzero;stroke:none"
             d="M 0,0 C 0,1.204 0.042,2.049 0.042,3.295 H 0 c -0.625,0 -2.05,-0.042 -2.674,-0.042 h -4.941 c -0.179,0.888 -0.225,1.779 -0.225,2.492 0,0.667 0.046,1.604 0.225,2.495 h 21.284 c 0.176,-0.625 0.31,-1.558 0.31,-2.316 0,-1.959 -1.022,-2.671 -3.205,-2.671 H 8.683 c -0.625,0 -2.05,0.042 -2.674,0.042 H 5.966 C 5.966,2.049 6.009,1.204 6.009,0 v -22.172 c -1.026,-0.179 -2.138,-0.222 -3.026,-0.222 -0.849,0 -1.962,0.043 -2.983,0.222 z" /></g><g
           transform="translate(292.9868,130.4079)"
           id="g56"><path
             id="path58"
             style="fill:#231f20;fill-opacity:1;fill-rule:nonzero;stroke:none"
             d="m 0,0 c 1.559,0.088 3.25,0.133 4.096,0.133 3.874,0 4.762,2.359 4.762,4.808 C 8.858,7.433 7.97,9.75 4.096,9.75 3.025,9.75 1.38,9.75 0,9.795 Z m 9.438,-3.208 c 1.603,-0.578 2.67,-2.091 3.294,-3.916 l 1.65,-4.499 c 0.442,-1.246 1.112,-2.449 2.092,-3.25 -0.758,-1.066 -2.405,-1.782 -3.963,-1.782 -2.183,0 -2.941,1.203 -3.786,3.519 l -1.871,5.3 C 6.187,-6.057 5.296,-4.632 2.713,-4.632 H 0 v -11.665 c -0.982,-0.179 -2.14,-0.222 -2.986,-0.222 -0.754,0 -2.003,0.043 -2.938,0.222 V 13.89 l 0.313,0.267 c 3.562,0.091 6.945,0.179 10.152,0.179 6.188,0 10.462,-3.071 10.462,-9.395 0,-4.229 -2.671,-7.124 -5.565,-8.149" /></g><g
           transform="translate(314.2681,144.5227)"
           id="g60"><path
             id="path62"
             style="fill:#231f20;fill-opacity:1;fill-rule:nonzero;stroke:none"
             d="M 0,0 C 0.892,0.176 2.183,0.221 2.983,0.221 3.829,0.221 4.987,0.176 5.966,0 v -30.412 c -0.979,-0.179 -2.137,-0.221 -2.983,-0.221 -0.8,0 -2.091,0.042 -2.983,0.221 z" /></g><g
           transform="translate(333.9028,125.7302)"
           id="g64"><path
             id="path66"
             style="fill:#231f20;fill-opacity:1;fill-rule:nonzero;stroke:none"
             d="M 0,0 C 0.625,0 1.559,0.045 2.004,0.045 H 5.833 C 6.233,0.045 7.079,0 7.703,0 L 6.366,4.544 C 5.611,7.082 4.63,10.51 3.963,13.181 H 3.696 C 3.25,10.911 2.316,7.703 1.737,5.657 Z m -1.47,-4.717 -2.092,-6.948 c -0.757,-0.176 -1.649,-0.221 -2.583,-0.221 -0.933,0 -2.136,0.133 -2.849,0.4 l -0.222,0.312 9.929,29.966 c 0.979,0.134 2.449,0.222 3.474,0.222 0.934,0 2.492,-0.088 3.425,-0.267 l 9.753,-29.967 c -0.845,-0.488 -2.27,-0.758 -3.428,-0.758 -1.914,0 -2.85,0.67 -3.563,3.208 l -1.246,4.053 c -0.667,0 -1.736,-0.045 -2.183,-0.045 H 0.713 c -0.445,0 -1.471,0 -2.183,0.045" /></g><g
           transform="translate(371.5278,125.7302)"
           id="g68"><path
             id="path70"
             style="fill:#231f20;fill-opacity:1;fill-rule:nonzero;stroke:none"
             d="M 0,0 C 0.624,0 1.558,0.045 2.003,0.045 H 5.832 C 6.232,0.045 7.078,0 7.702,0 L 6.365,4.544 C 5.611,7.082 4.629,10.51 3.962,13.181 H 3.695 C 3.249,10.911 2.315,7.703 1.736,5.657 Z m -1.471,-4.717 -2.092,-6.948 c -0.757,-0.176 -1.646,-0.221 -2.583,-0.221 -0.933,0 -2.136,0.133 -2.849,0.4 l -0.221,0.312 9.928,29.966 c 0.979,0.134 2.449,0.222 3.475,0.222 0.933,0 2.491,-0.088 3.427,-0.267 l 9.75,-29.967 c -0.845,-0.488 -2.27,-0.758 -3.428,-0.758 -1.914,0 -2.85,0.67 -3.563,3.208 l -1.246,4.053 c -0.666,0 -1.736,-0.045 -2.183,-0.045 H 0.712 c -0.445,0 -1.471,0 -2.183,0.045" /></g><g
           transform="translate(394.7212,144.4772)"
           id="g72"><path
             id="path74"
             style="fill:#231f20;fill-opacity:1;fill-rule:nonzero;stroke:none"
             d="M 0,0 C 1.292,0.221 2.986,0.312 4.008,0.312 5.078,0.312 6.545,0.221 7.794,0 l 3.429,-12.335 c 0.312,-1.246 1.424,-5.833 1.691,-7.612 h 0.313 c 0.266,1.779 1.379,6.366 1.691,7.612 L 18.302,0 c 1.337,0.221 2.761,0.312 3.783,0.312 1.07,0 2.716,-0.091 4.053,-0.312 l 2.358,-30.279 c -0.846,-0.221 -2.046,-0.309 -3.025,-0.309 -0.937,0 -1.783,0.043 -2.628,0.176 l -0.846,14.293 c -0.179,2.762 -0.354,6.858 -0.354,9.662 H 21.33 l -5.211,-19.369 c -0.889,-0.133 -2.225,-0.221 -3.071,-0.221 -0.804,0 -2.137,0.088 -3.028,0.221 L 4.812,-6.457 H 4.499 C 4.453,-9.261 4.32,-13.357 4.142,-16.119 L 3.296,-30.412 c -0.846,-0.133 -1.734,-0.176 -2.671,-0.176 -0.934,0 -2.138,0.088 -2.983,0.309 z" /></g><g
           transform="translate(435.9106,125.7302)"
           id="g76"><path
             id="path78"
             style="fill:#231f20;fill-opacity:1;fill-rule:nonzero;stroke:none"
             d="M 0,0 C 0.624,0 1.559,0.045 2.004,0.045 H 5.833 C 6.232,0.045 7.078,0 7.703,0 L 6.366,4.544 C 5.611,7.082 4.629,10.51 3.962,13.181 H 3.695 C 3.25,10.911 2.316,7.703 1.737,5.657 Z m -1.471,-4.717 -2.092,-6.948 c -0.757,-0.176 -1.645,-0.221 -2.582,-0.221 -0.934,0 -2.137,0.133 -2.849,0.4 l -0.222,0.312 9.928,29.966 c 0.979,0.134 2.45,0.222 3.475,0.222 0.933,0 2.492,-0.088 3.428,-0.267 l 9.749,-29.967 c -0.845,-0.488 -2.27,-0.758 -3.428,-0.758 -1.914,0 -2.85,0.67 -3.562,3.208 l -1.246,4.053 c -0.667,0 -1.737,-0.045 -2.183,-0.045 H 0.712 c -0.445,0 -1.47,0 -2.183,0.045" /></g><g
           transform="translate(468.4116,140.0236)"
           id="g80"><path
             id="path82"
             style="fill:#231f20;fill-opacity:1;fill-rule:nonzero;stroke:none"
             d="M 0,0 C -1.691,0 -3.071,0 -4.854,0.046 V -21.46 c 1.783,0.043 3.163,0.043 4.854,0.043 5.832,0 6.678,5.835 6.678,10.731 C 6.678,-5.787 5.832,0 0,0 M 7.97,-23.909 C 6.012,-25.513 2.403,-26.134 0,-26.134 c -3.741,0 -6.633,0.088 -10.508,0.176 l -0.311,0.266 V 4.274 l 0.311,0.268 C -6.679,4.675 -3.741,4.72 0,4.72 c 2.403,0 6.012,-0.624 7.97,-2.225 4.095,-3.295 4.853,-8.015 4.853,-13.181 0,-5.208 -0.713,-9.928 -4.853,-13.223" /></g><g
           transform="translate(492.4995,125.7302)"
           id="g84"><path
             id="path86"
             style="fill:#231f20;fill-opacity:1;fill-rule:nonzero;stroke:none"
             d="M 0,0 C 0.625,0 1.559,0.045 2.004,0.045 H 5.833 C 6.233,0.045 7.079,0 7.703,0 L 6.366,4.544 C 5.611,7.082 4.629,10.51 3.963,13.181 H 3.695 C 3.25,10.911 2.316,7.703 1.737,5.657 Z m -1.47,-4.717 -2.092,-6.948 c -0.757,-0.176 -1.649,-0.221 -2.583,-0.221 -0.933,0 -2.137,0.133 -2.849,0.4 l -0.222,0.312 9.929,29.966 c 0.978,0.134 2.449,0.222 3.474,0.222 0.933,0 2.492,-0.088 3.425,-0.267 l 9.753,-29.967 c -0.846,-0.488 -2.271,-0.758 -3.428,-0.758 -1.914,0 -2.85,0.67 -3.563,3.208 l -1.246,4.053 c -0.667,0 -1.737,-0.045 -2.183,-0.045 H 0.713 c -0.446,0 -1.471,0 -2.183,0.045" /></g><g
           transform="translate(255.1714,154.9353)"
           id="g88"><path
             id="path90"
             style="fill:#231f20;fill-opacity:1;fill-rule:nonzero;stroke:none"
             d="m 0,0 c 0.88,-0.462 2.082,-1.855 2.394,-3.179 l -7.375,-4.384 c -0.744,0.271 -1.424,1.256 -1.645,1.995 z" /></g><g
           transform="translate(223.8501,25.0744)"
           id="g92"><path
             id="path94"
             style="fill:#231f20;fill-opacity:1;fill-rule:nonzero;stroke:none"
             d="m 0,0 3.398,0.022 c 1.53,0 2.294,-0.722 2.294,-2.164 v -5.692 c -1.861,-0.591 -3.816,-0.887 -5.865,-0.887 -1.039,0 -1.958,0.173 -2.76,0.52 -0.8,0.345 -1.471,0.844 -2.012,1.492 -0.54,0.649 -0.949,1.447 -1.222,2.393 -0.275,0.943 -0.412,2.015 -0.412,3.213 0,1.312 0.191,2.457 0.574,3.43 0.382,0.974 0.894,1.786 1.536,2.435 0.642,0.649 1.381,1.136 2.219,1.462 0.836,0.323 1.709,0.485 2.618,0.485 1.876,0 3.637,-0.518 5.281,-1.557 C 5.635,4.921 5.58,4.686 5.487,4.448 5.393,4.21 5.277,3.979 5.141,3.756 5.003,3.532 4.845,3.33 4.664,3.15 4.483,2.969 4.3,2.814 4.112,2.684 c -1.198,0.779 -2.41,1.17 -3.635,1.17 -2.353,0 -3.529,-1.646 -3.529,-4.936 0,-3.276 1.205,-4.912 3.614,-4.912 0.333,0 0.654,0.014 0.964,0.042 0.31,0.03 0.617,0.073 0.92,0.13 v 1.45 c 0,0.333 0.003,0.622 0.011,0.867 0.007,0.244 0.018,0.454 0.032,0.627 H 1.407 c -0.62,0 -1.05,0.119 -1.288,0.357 -0.238,0.239 -0.356,0.61 -0.356,1.115 0,0.433 0.079,0.902 0.237,1.406" /></g><g
           transform="translate(242.9175,20.7023)"
           id="g96"><path
             id="path98"
             style="fill:#231f20;fill-opacity:1;fill-rule:nonzero;stroke:none"
             d="m 0,0 c 0.39,-1.125 1.176,-1.687 2.359,-1.687 0.592,0 1.072,0.147 1.44,0.443 0.367,0.296 0.656,0.671 0.865,1.125 0.209,0.455 0.35,0.964 0.423,1.526 0.071,0.564 0.107,1.119 0.107,1.667 0,0.505 -0.017,1.067 -0.053,1.689 C 5.104,5.383 4.999,5.963 4.826,6.504 4.653,7.045 4.379,7.5 4.004,7.867 3.629,8.235 3.08,8.419 2.359,8.419 1.667,8.419 1.137,8.243 0.769,7.89 0.4,7.536 0.126,7.1 -0.054,6.581 -0.234,6.061 -0.347,5.509 -0.39,4.924 -0.433,4.341 -0.454,3.824 -0.454,3.376 -0.454,2.713 -0.422,2.123 -0.357,1.603 -0.292,1.083 -0.173,0.549 0,0 m -1.753,-2.985 c -1.544,1.283 -2.315,3.397 -2.315,6.34 0,1.27 0.147,2.385 0.443,3.344 0.296,0.959 0.721,1.764 1.276,2.413 0.556,0.65 1.231,1.139 2.025,1.472 0.793,0.332 1.688,0.497 2.683,0.497 0.996,0 1.894,-0.165 2.695,-0.497 C 5.854,10.251 6.532,9.757 7.088,9.102 7.644,8.445 8.069,7.637 8.365,6.678 8.66,5.718 8.809,4.611 8.809,3.355 8.809,2.1 8.66,0.993 8.365,0.033 8.069,-0.927 7.644,-1.731 7.088,-2.379 6.532,-3.029 5.854,-3.519 5.054,-3.852 4.253,-4.183 3.355,-4.349 2.359,-4.349 c -1.644,0 -3.015,0.454 -4.112,1.364" /></g><g
           transform="translate(266.5728,19.5769)"
           id="g100"><path
             id="path102"
             style="fill:#231f20;fill-opacity:1;fill-rule:nonzero;stroke:none"
             d="m 0,0 2.835,11.882 c 0.347,0.087 0.793,0.131 1.342,0.131 0.75,0 1.342,-0.08 1.774,-0.238 l 0.131,-0.174 -4.048,-14.5 c -0.822,-0.086 -1.648,-0.13 -2.478,-0.13 -0.829,0 -1.428,0.104 -1.796,0.314 -0.368,0.209 -0.646,0.624 -0.833,1.244 L -6.666,11.58 c 0.779,0.331 1.421,0.498 1.926,0.498 0.606,0 1.053,-0.138 1.342,-0.412 0.288,-0.273 0.512,-0.707 0.671,-1.298 L -1.061,4.199 C -0.801,3.232 -0.527,1.92 -0.238,0.261 -0.21,0.088 -0.13,0 0,0" /></g><g
           transform="translate(285.3149,21.0495)"
           id="g104"><path
             id="path106"
             style="fill:#231f20;fill-opacity:1;fill-rule:nonzero;stroke:none"
             d="M 0,0 -0.021,-1.559 V -1.58 c 0.661,0.028 1.193,0.044 1.595,0.044 H 6.579 C 6.579,-2.071 6.558,-2.482 6.514,-2.771 6.342,-3.882 5.605,-4.437 4.307,-4.437 H -1.45 c -0.621,0 -1.108,0.18 -1.461,0.541 -0.354,0.361 -0.53,0.852 -0.53,1.472 V 10.258 L -3.29,10.41 H 6.038 C 6.125,9.991 6.168,9.536 6.168,9.046 6.168,8.557 6.067,8.044 5.865,7.51 H -0.021 L 0,5.952 V 4.437 C 0.373,4.451 0.861,4.458 1.465,4.458 H 4.762 C 4.891,4.055 4.956,3.593 4.956,3.073 4.956,2.554 4.891,2.078 4.762,1.645 H 0 Z" /></g><g
           transform="translate(305.1606,29.0144)"
           id="g108"><path
             id="path110"
             style="fill:#231f20;fill-opacity:1;fill-rule:nonzero;stroke:none"
             d="m 0,0 v -4.264 c 0.649,0 1.205,0.011 1.666,0.032 0.462,0.022 0.834,0.109 1.115,0.261 0.282,0.153 0.494,0.367 0.639,0.642 0.143,0.275 0.217,0.674 0.217,1.197 0,1.407 -0.679,2.109 -2.034,2.109 H 0.704 C 0.437,-0.023 0.202,-0.016 0,0 M 7.164,-2.121 C 7.164,-2.598 7.092,-3.048 6.947,-3.474 6.803,-3.9 6.612,-4.283 6.374,-4.621 6.136,-4.961 5.854,-5.257 5.53,-5.509 5.205,-5.761 4.869,-5.952 4.523,-6.082 5.273,-6.357 5.829,-7.021 6.189,-8.073 l 0.651,-1.84 c 0.244,-0.722 0.605,-1.254 1.081,-1.601 -0.216,-0.289 -0.541,-0.531 -0.974,-0.725 -0.432,-0.196 -0.909,-0.293 -1.428,-0.293 -0.519,0 -0.923,0.149 -1.212,0.445 -0.289,0.295 -0.556,0.811 -0.801,1.547 l -0.779,2.272 c -0.159,0.434 -0.372,0.765 -0.639,0.996 -0.267,0.23 -0.667,0.346 -1.2,0.346 H 0 v -5.411 c -0.462,-0.086 -1.039,-0.13 -1.731,-0.13 -0.693,0 -1.263,0.044 -1.709,0.13 V 2.337 l 0.151,0.152 c 1.255,0.028 2.311,0.049 3.17,0.065 0.858,0.014 1.533,0.021 2.024,0.021 0.793,0 1.515,-0.097 2.164,-0.291 C 4.718,2.088 5.271,1.796 5.725,1.406 6.179,1.017 6.532,0.526 6.785,-0.065 7.037,-0.657 7.164,-1.342 7.164,-2.121" /></g><g
           transform="translate(334.0972,31.6105)"
           id="g112"><path
             id="path114"
             style="fill:#231f20;fill-opacity:1;fill-rule:nonzero;stroke:none"
             d="m 0,0 0.151,-0.151 v -14.717 c -0.578,-0.13 -1.259,-0.195 -2.046,-0.195 -0.786,0 -1.482,0.044 -2.087,0.13 l -3.399,7.748 c -0.404,0.879 -0.815,1.897 -1.233,3.051 L -8.68,-4.155 c 0.174,-2.107 0.26,-4.264 0.26,-6.471 v -4.307 c -0.447,-0.086 -0.988,-0.13 -1.623,-0.13 -0.635,0 -1.169,0.044 -1.601,0.13 v 14.717 c 0.548,0.13 1.208,0.195 1.98,0.195 0.771,0 1.461,-0.044 2.067,-0.13 l 3.355,-7.726 c 0.605,-1.428 1.053,-2.525 1.342,-3.29 l 0.086,0.044 c -0.173,2.004 -0.26,4.132 -0.26,6.383 v 2.64 c 0,0.751 0.151,1.289 0.455,1.613 C -2.316,-0.161 -1.826,0 -1.147,0 Z" /></g><g
           transform="translate(348.1431,20.7023)"
           id="g116"><path
             id="path118"
             style="fill:#231f20;fill-opacity:1;fill-rule:nonzero;stroke:none"
             d="m 0,0 c 0.389,-1.125 1.176,-1.687 2.358,-1.687 0.592,0 1.072,0.147 1.44,0.443 0.368,0.296 0.656,0.671 0.865,1.125 0.21,0.455 0.35,0.964 0.423,1.526 0.071,0.564 0.108,1.119 0.108,1.667 0,0.505 -0.018,1.067 -0.054,1.689 C 5.104,5.383 4.999,5.963 4.826,6.504 4.652,7.045 4.379,7.5 4.004,7.867 3.628,8.235 3.08,8.419 2.358,8.419 1.666,8.419 1.136,8.243 0.768,7.89 0.399,7.536 0.126,7.1 -0.055,6.581 -0.235,6.061 -0.347,5.509 -0.391,4.924 -0.434,4.341 -0.455,3.824 -0.455,3.376 -0.455,2.713 -0.423,2.123 -0.357,1.603 -0.293,1.083 -0.174,0.549 0,0 m -1.754,-2.985 c -1.544,1.283 -2.315,3.397 -2.315,6.34 0,1.27 0.147,2.385 0.443,3.344 0.296,0.959 0.722,1.764 1.277,2.413 0.556,0.65 1.231,1.139 2.024,1.472 0.794,0.332 1.688,0.497 2.683,0.497 0.996,0 1.895,-0.165 2.695,-0.497 C 5.854,10.251 6.532,9.757 7.088,9.102 7.643,8.445 8.068,7.637 8.364,6.678 8.66,5.718 8.808,4.611 8.808,3.355 8.808,2.1 8.66,0.993 8.364,0.033 8.068,-0.927 7.643,-1.731 7.088,-2.379 6.532,-3.029 5.854,-3.519 5.053,-3.852 4.253,-4.183 3.354,-4.349 2.358,-4.349 c -1.644,0 -3.015,0.454 -4.112,1.364" /></g><g
           transform="translate(382.4019,28.5158)"
           id="g120"><path
             id="path122"
             style="fill:#231f20;fill-opacity:1;fill-rule:nonzero;stroke:none"
             d="M 0,0 0.021,-1.687 V -3.051 H 4.676 C 4.79,-3.484 4.849,-3.957 4.849,-4.469 4.849,-4.982 4.79,-5.453 4.676,-5.886 H 0.021 v -5.952 c -0.458,-0.086 -1.031,-0.13 -1.72,-0.13 -0.688,0 -1.262,0.044 -1.72,0.13 V 2.813 l 0.151,0.13 H 5.995 C 6.082,2.583 6.125,2.132 6.125,1.591 6.125,1.051 5.977,0.65 5.68,0.39 5.384,0.13 4.917,0 4.279,0 Z" /></g><g
           transform="translate(401.4038,21.0495)"
           id="g124"><path
             id="path126"
             style="fill:#231f20;fill-opacity:1;fill-rule:nonzero;stroke:none"
             d="M 0,0 -0.021,-1.559 V -1.58 c 0.661,0.028 1.193,0.044 1.596,0.044 H 6.579 C 6.579,-2.071 6.558,-2.482 6.515,-2.771 6.342,-3.882 5.605,-4.437 4.308,-4.437 H -1.45 c -0.62,0 -1.108,0.18 -1.461,0.541 -0.354,0.361 -0.53,0.852 -0.53,1.472 v 12.682 l 0.152,0.152 H 6.039 C 6.125,9.991 6.168,9.536 6.168,9.046 6.168,8.557 6.067,8.044 5.866,7.51 H -0.021 L 0,5.952 V 4.437 C 0.374,4.451 0.862,4.458 1.465,4.458 H 4.762 C 4.892,4.055 4.956,3.593 4.956,3.073 4.956,2.554 4.892,2.078 4.762,1.645 H 0 Z" /></g><g
           transform="translate(423.3931,19.2526)"
           id="g128"><path
             id="path130"
             style="fill:#231f20;fill-opacity:1;fill-rule:nonzero;stroke:none"
             d="M 0,0 C 1.903,0 2.856,1.602 2.856,4.805 2.856,8.021 1.903,9.631 0,9.631 h -1.224 c -0.353,0 -0.66,0.008 -0.92,0.022 V -0.021 C -1.884,-0.007 -1.577,0 -1.224,0 Z M 3.982,-1.622 C 3.52,-1.998 2.914,-2.272 2.163,-2.445 c -0.75,-0.174 -1.579,-0.26 -2.488,-0.26 -0.447,0 -1.093,0.008 -1.937,0.022 -0.844,0.015 -1.901,0.036 -3.171,0.064 l -0.151,0.152 v 14.566 l 0.151,0.151 c 0.837,0.029 1.706,0.05 2.608,0.065 0.902,0.015 1.85,0.022 2.846,0.022 1.227,0 2.25,-0.195 3.074,-0.585 C 3.917,11.363 4.573,10.829 5.063,10.151 5.554,9.473 5.9,8.676 6.103,7.76 6.305,6.842 6.405,5.858 6.405,4.805 6.405,3.363 6.239,2.114 5.908,1.061 5.576,0.007 4.935,-0.887 3.982,-1.622" /></g><g
           transform="translate(443.0864,21.0495)"
           id="g132"><path
             id="path134"
             style="fill:#231f20;fill-opacity:1;fill-rule:nonzero;stroke:none"
             d="M 0,0 -0.021,-1.559 V -1.58 c 0.662,0.028 1.194,0.044 1.596,0.044 H 6.58 C 6.58,-2.071 6.558,-2.482 6.515,-2.771 6.342,-3.882 5.605,-4.437 4.308,-4.437 h -5.757 c -0.621,0 -1.109,0.18 -1.461,0.541 -0.355,0.361 -0.53,0.852 -0.53,1.472 v 12.682 l 0.151,0.152 H 6.039 C 6.125,9.991 6.169,9.536 6.169,9.046 6.169,8.557 6.068,8.044 5.866,7.51 H -0.021 L 0,5.952 V 4.437 C 0.374,4.451 0.862,4.458 1.466,4.458 H 4.762 C 4.892,4.055 4.957,3.593 4.957,3.073 4.957,2.554 4.892,2.078 4.762,1.645 H 0 Z" /></g><g
           transform="translate(462.9331,29.0144)"
           id="g136"><path
             id="path138"
             style="fill:#231f20;fill-opacity:1;fill-rule:nonzero;stroke:none"
             d="m 0,0 v -4.264 c 0.649,0 1.205,0.011 1.666,0.032 0.462,0.022 0.833,0.109 1.115,0.261 0.282,0.153 0.494,0.367 0.639,0.642 0.143,0.275 0.217,0.674 0.217,1.197 0,1.407 -0.68,2.109 -2.035,2.109 H 0.703 C 0.436,-0.023 0.202,-0.016 0,0 M 7.163,-2.121 C 7.163,-2.598 7.091,-3.048 6.947,-3.474 6.803,-3.9 6.612,-4.283 6.373,-4.621 6.136,-4.961 5.854,-5.257 5.529,-5.509 5.205,-5.761 4.869,-5.952 4.523,-6.082 5.273,-6.357 5.829,-7.021 6.189,-8.073 l 0.65,-1.84 c 0.245,-0.722 0.606,-1.254 1.082,-1.601 -0.216,-0.289 -0.541,-0.531 -0.974,-0.725 -0.432,-0.196 -0.909,-0.293 -1.428,-0.293 -0.519,0 -0.923,0.149 -1.212,0.445 -0.289,0.295 -0.556,0.811 -0.801,1.547 l -0.779,2.272 c -0.159,0.434 -0.372,0.765 -0.639,0.996 -0.267,0.23 -0.667,0.346 -1.2,0.346 H 0 v -5.411 c -0.462,-0.086 -1.039,-0.13 -1.731,-0.13 -0.693,0 -1.263,0.044 -1.71,0.13 V 2.337 l 0.152,0.152 c 1.255,0.028 2.311,0.049 3.17,0.065 0.858,0.014 1.532,0.021 2.024,0.021 0.792,0 1.515,-0.097 2.163,-0.291 C 4.718,2.088 5.27,1.796 5.725,1.406 6.179,1.017 6.532,0.526 6.785,-0.065 7.037,-0.657 7.163,-1.342 7.163,-2.121" /></g><g
           transform="translate(483.7524,22.4992)"
           id="g140"><path
             id="path142"
             style="fill:#231f20;fill-opacity:1;fill-rule:nonzero;stroke:none"
             d="m 0,0 0.866,0.022 h 1.58 C 2.519,0.022 2.645,0.018 2.824,0.011 3.005,0.004 3.139,0 3.226,0 L 2.857,1.342 C 2.511,2.554 2.114,4.041 1.667,5.8 H 1.537 C 1.422,5.18 1.075,3.803 0.499,1.666 Z m 0.065,-2.727 c -0.389,0 -0.677,0.007 -0.866,0.021 l -0.93,-3.137 c -0.346,-0.086 -0.83,-0.13 -1.45,-0.13 -0.693,0 -1.255,0.079 -1.688,0.238 l -0.109,0.173 4.762,14.522 c 0.563,0.086 1.219,0.13 1.97,0.13 0.85,0 1.528,-0.051 2.034,-0.151 L 8.463,-5.605 c -0.506,-0.274 -1.075,-0.412 -1.71,-0.412 -0.751,0 -1.276,0.13 -1.58,0.391 C 4.87,-5.367 4.61,-4.869 4.394,-4.134 L 3.982,-2.706 C 3.795,-2.72 3.514,-2.727 3.139,-2.727 Z" /></g><g
           transform="translate(506.9175,19.5998)"
           id="g144"><path
             id="path146"
             style="fill:#231f20;fill-opacity:1;fill-rule:nonzero;stroke:none"
             d="M 0,0 H 3.758 C 3.758,-0.578 3.722,-1.072 3.65,-1.482 3.577,-1.895 3.347,-2.248 2.957,-2.543 2.568,-2.838 2.056,-2.987 1.421,-2.987 H -3.47 c -0.621,0 -1.111,0.179 -1.472,0.541 -0.361,0.361 -0.541,0.852 -0.541,1.472 v 12.833 l 0.151,0.152 h 1.269 c 1.347,0 2.021,-0.736 2.021,-2.207 v -9.89 C -1.405,-0.03 -0.725,0 0,0" /></g><path
           id="path148"
           style="fill:#ffffff;fill-opacity:1;fill-rule:nonzero;stroke:none"
           d="M 198.872,16.518 H 17.745 V 144.72 h 181.127 z" /><g
           transform="translate(17.7446,144.739)"
           id="g150"><path
             id="path152"
             style="fill:#4f4c4d;fill-opacity:1;fill-rule:nonzero;stroke:none"
             d="m 0,0 v -69.708 l 72.079,58.16 109.048,-48.1 V 0 Z" /></g><g
           transform="translate(17.7446,75.0314)"
           id="g154"><path
             id="path156"
             style="fill:#bdbcbc;fill-opacity:1;fill-rule:nonzero;stroke:none"
             d="m 0,0 v -49.424 c 0,0 5.767,5.04 16.521,12.185 5.128,31.868 32.753,56.213 66.069,56.213 15.094,0 29.019,-4.999 40.215,-13.429 17.905,3.301 37.42,5.106 58.322,4.515 L 72.079,58.159 Z" /></g><g
           transform="translate(100.3345,94.0051)"
           id="g158"><path
             id="path160"
             style="fill:#231f20;fill-opacity:1;fill-rule:nonzero;stroke:none"
             d="m 0,0 c -33.315,0 -60.94,-24.344 -66.068,-56.213 19.921,13.235 56.974,33.696 106.283,42.785 C 29.02,-4.999 15.094,0 0,0" /></g><g
           transform="translate(140.5493,80.5769)"
           id="g162"><path
             id="path164"
             style="fill:#ffffff;fill-opacity:1;fill-rule:nonzero;stroke:none"
             d="m 0,0 c -49.309,-9.089 -86.362,-29.55 -106.283,-42.785 -10.755,-7.145 -16.522,-12.184 -16.522,-12.184 v -9.109 c 0,0 5.301,4.424 15.664,10.534 21.018,12.391 62.891,31.732 123.838,35.27 13.012,0.755 26.893,0.791 41.625,-0.117 V 4.514 C 37.42,5.105 17.905,3.301 0,0" /></g><g
           transform="translate(157.2466,62.3029)"
           id="g166"><path
             id="path168"
             style="fill:#4f4c4d;fill-opacity:1;fill-rule:nonzero;stroke:none"
             d="m 0,0 c -60.947,-3.538 -102.82,-22.879 -123.838,-35.271 -10.363,-6.109 -15.664,-10.533 -15.664,-10.533 H -123.003 9.179 41.625 V -0.117 C 26.893,0.791 13.012,0.755 0,0" /></g></g></g></g></svg>