<?xml version="1.0" standalone="no"?>
<!DOCTYPE svg PUBLIC "-//W3C//DTD SVG 20010904//EN"
 "http://www.w3.org/TR/2001/REC-SVG-20010904/DTD/svg10.dtd">
<svg version="1.0" xmlns="http://www.w3.org/2000/svg"
 width="519.000000pt" height="354.000000pt" viewBox="0 0 519.000000 354.000000"
 preserveAspectRatio="xMidYMid meet">

<g transform="translate(0.000000,354.000000) scale(0.100000,-0.100000)"
fill="#000000" stroke="none">
<path d="M1780 2760 l0 -200 800 0 800 0 0 200 0 200 -800 0 -800 0 0 -200z"/>
<path d="M1780 1870 l0 -510 800 0 800 0 0 510 0 510 -172 -1 c-161 -1 -170
-2 -125 -14 69 -19 93 -38 112 -90 15 -39 16 -52 6 -85 -14 -47 -61 -104 -104
-127 l-31 -15 27 -14 c32 -17 35 -30 40 -151 l3 -93 -72 0 -71 0 -7 31 c-3 17
-6 62 -6 98 0 39 -5 72 -12 79 -7 7 -42 12 -88 12 l-77 0 -29 -107 -29 -108
-81 -3 -82 -3 84 288 c46 158 84 291 84 296 0 4 -87 7 -192 6 -175 -1 -188 -2
-143 -14 64 -15 88 -28 114 -61 42 -54 19 -157 -45 -199 l-26 -17 27 -28 c80
-83 14 -231 -114 -259 -29 -6 -140 -11 -247 -11 -181 0 -195 1 -190 18 3 9 39
136 81 282 42 146 78 271 80 278 3 9 -32 12 -155 12 l-160 0 0 -510z"/>
<path d="M2206 2206 c-9 -30 -16 -57 -16 -60 0 -12 165 -6 190 7 18 9 26 22
28 45 5 53 -10 62 -104 62 l-83 0 -15 -54z"/>
<path d="M2856 2195 c-9 -35 -16 -67 -16 -70 0 -3 41 -5 90 -5 83 0 93 2 115
25 32 31 35 89 6 105 -11 5 -55 10 -99 10 l-80 0 -16 -65z"/>
<path d="M2155 2028 c-7 -23 -35 -122 -35 -126 0 -2 42 -2 94 0 75 2 98 7 115
22 28 26 29 91 2 106 -29 15 -171 13 -176 -2z"/>
<path d="M2499 968 c-101 -53 -156 -152 -147 -265 5 -62 31 -96 86 -114 48
-16 149 -6 199 19 115 59 185 224 135 321 -40 78 -163 96 -273 39z m132 -89
c58 -58 -49 -229 -116 -185 -61 40 6 198 88 205 4 1 17 -9 28 -20z"/>
<path d="M4351 987 c-48 -15 -97 -66 -110 -114 -20 -73 7 -106 109 -133 62
-16 77 -30 54 -47 -26 -19 -62 -16 -76 7 -11 17 -24 20 -80 20 -67 0 -68 0
-68 -27 0 -44 34 -89 76 -103 22 -7 64 -11 105 -8 89 7 149 41 178 101 42 87
22 126 -84 160 -46 14 -70 27 -70 37 0 21 53 26 61 6 5 -12 22 -16 75 -16 67
0 69 1 69 25 0 40 -21 73 -55 90 -38 17 -133 19 -184 2z"/>
<path d="M641 803 c-30 -103 -56 -194 -58 -201 -4 -10 10 -12 68 -10 l73 3 15
58 15 57 50 0 c69 0 119 15 157 47 36 31 68 95 69 136 0 76 -45 97 -213 97
l-123 0 -53 -187z m233 81 c39 -15 -4 -74 -54 -74 -33 0 -37 11 -20 54 10 26
38 34 74 20z"/>
<path d="M1125 978 c-9 -27 -105 -375 -105 -381 0 -4 76 -7 169 -7 l169 0 11
44 c6 25 11 47 11 50 0 3 -43 6 -96 6 -93 0 -95 1 -92 23 3 20 9 22 87 27 l84
5 13 45 c8 25 14 46 14 48 0 1 -36 2 -80 2 -79 0 -86 3 -74 34 5 13 24 16 100
16 104 0 100 -2 118 73 l6 27 -165 0 c-124 0 -167 -3 -170 -12z"/>
<path d="M1515 938 c-8 -28 -15 -53 -15 -55 0 -2 25 -3 55 -3 30 0 55 -3 55
-7 0 -5 -17 -69 -39 -143 l-38 -135 60 -3 c33 -2 65 -1 71 1 7 3 30 68 51 146
l40 141 56 0 57 0 16 47 c9 26 16 50 16 55 0 4 -83 8 -185 8 l-184 0 -16 -52z"/>
<path d="M1966 973 c-26 -88 -106 -373 -106 -377 0 -3 31 -6 69 -6 l70 0 16
58 c9 31 18 63 20 70 6 16 46 15 70 -2 16 -12 17 -18 7 -59 -18 -70 -19 -68
60 -65 71 3 71 3 74 33 1 17 6 52 10 79 6 41 4 51 -10 62 -16 12 -16 13 4 24
56 30 80 138 39 176 -18 17 -40 19 -169 22 -137 4 -148 2 -154 -15z m202 -110
c4 -26 -28 -43 -78 -43 -28 0 -28 1 -17 35 10 34 13 36 51 33 34 -2 42 -7 44
-25z"/>
<path d="M2917 983 c-8 -13 -107 -368 -107 -382 0 -10 31 -12 143 -9 161 3
202 16 237 73 24 38 27 107 5 125 -13 11 -12 15 9 31 29 23 49 68 44 105 -5
49 -51 64 -200 64 -70 0 -129 -3 -131 -7z m189 -104 c10 -17 -18 -39 -59 -46
l-37 -6 11 32 c9 26 16 31 44 31 19 0 37 -5 41 -11z m-26 -149 c0 -24 -28 -40
-69 -40 -31 0 -38 11 -25 44 4 11 19 16 50 16 37 0 44 -3 44 -20z"/>
<path d="M3367 983 c-7 -13 -107 -367 -107 -381 0 -8 21 -12 68 -12 l68 0 18
70 c20 75 27 80 81 60 22 -8 26 -15 21 -33 -3 -12 -9 -39 -12 -59 l-7 -38 70
0 c66 0 71 1 71 23 0 12 5 42 12 66 12 46 7 91 -11 91 -5 0 6 16 25 35 61 61
61 145 1 171 -37 15 -290 21 -298 7z m200 -110 c9 -23 -32 -53 -73 -53 -19 0
-34 2 -34 4 0 1 5 17 11 35 10 28 15 31 50 31 28 0 42 -5 46 -17z"/>
<path d="M3808 792 l-127 -197 67 -3 c61 -3 68 -1 85 22 16 23 26 26 78 26 56
0 59 -1 59 -25 0 -24 2 -25 70 -25 68 0 70 1 66 23 -3 12 -10 102 -17 200
l-12 177 -71 0 -71 0 -127 -198z m162 -7 l0 -55 -34 0 -35 0 32 55 c17 30 33
55 34 55 2 0 3 -25 3 -55z"/>
</g>
</svg>
